<svg width="288" height="288" xmlns="http://www.w3.org/2000/svg"><svg xmlns="http://www.w3.org/2000/svg" width="288" height="288" viewBox="0 0 700 700"><path d="M577.5 35h-455c-9.676 0-17.5 7.84-17.5 17.5v455c0 9.66 7.824 17.5 17.5 17.5h455c9.676 0 17.5-7.84 17.5-17.5v-455c0-9.66-7.824-17.5-17.5-17.5zM560 490H140V70h420z" fill="#fe6d35" class="color000 svgShape"/><path d="m275.57 291.64 7.332-8.227c2.941-3.324 6.02-3.64 8.031-3.308 3.38.523 6.317 3.078 8.086 7.035 6.578 14.789 19.547 25.008 34.648 27.352 2.188.336 4.36.512 6.527.512 12.371 0 24.38-5.406 33.04-15.121l7.331-8.227c6.422-7.21 5.774-18.27-1.433-24.71-7.192-6.423-18.27-5.81-24.711 1.433l-7.332 8.226c-2.957 3.325-6.055 3.64-8.031 3.309-3.38-.524-6.317-3.078-8.086-7.035-6.578-14.79-19.547-25.008-34.648-27.352-14.684-2.293-29.383 3.203-39.566 14.613l-7.332 8.226c-6.422 7.211-5.774 18.27 1.433 24.711 7.192 6.422 18.25 5.79 24.711-1.437zM455 332.5c-9.66 0-17.5-7.86-17.5-17.5 0-9.66-7.824-17.5-17.5-17.5s-17.5 7.84-17.5 17.5c0 22.785 14.684 42.035 35 49.281v3.219c0 9.66 7.824 17.5 17.5 17.5s17.5-7.84 17.5-17.5v-3.219c20.316-7.246 35-26.496 35-49.281 0-28.945-23.555-52.5-52.5-52.5-9.66 0-17.5-7.86-17.5-17.5s7.84-17.5 17.5-17.5 17.5 7.86 17.5 17.5c0 9.66 7.824 17.5 17.5 17.5s17.5-7.84 17.5-17.5c0-22.785-14.684-42.035-35-49.281V192.5c0-9.66-7.824-17.5-17.5-17.5s-17.5 7.84-17.5 17.5v3.219c-20.316 7.246-35 26.496-35 49.281 0 28.945 23.555 52.5 52.5 52.5 9.66 0 17.5 7.86 17.5 17.5s-7.84 17.5-17.5 17.5zm-227.5-105c0 19.328-15.672 35-35 35s-35-15.672-35-35 15.672-35 35-35 35 15.672 35 35m0 105c0 19.328-15.672 35-35 35s-35-15.672-35-35 15.672-35 35-35 35 15.672 35 35" fill="#fe6d35" class="color000 svgShape"/></svg></svg>